#!OML:ASF \\sashay\E\Suitcase\Project 1\Capture day 1\Session 1\Male1.ASF
:FULLY-SPECIFIED
:DEGREES
175
root 0.8676 17.2669 -35.5811 6.04428 3.88813 -5.67851
lowerback 3.32534 -1.61714 3.77938
upperback 1.29865 -2.00495 3.76637
thorax -0.523519 -1.00025 1.82665
lowerneck -18.1177 -0.323233 -2.96577
upperneck 12.0477 0.314504 -0.00188924
head 6.62901 0.00959604 0.512285
rclavicle 4.77083e-015 -2.46493e-014
rhumerus -39.61 -30.6188 -60.8624
rradius 16.6014
rwrist 2.97142
rhand -12.9789 17.9394
rfingers 7.12502
rthumb 13.1135 -11.6283
lclavicle 4.77083e-015 -2.46493e-014
lhumerus -37.1278 4.04611 80.0319
lradius 41.2707
lwrist -3.23702
lhand -0.911771 42.395
lfingers 7.12502
lthumb 24.7168 70.8183
rfemur -11.4916 -1.10771 30.9548
rtibia 27.154
rfoot -22.3771 -2.79882
rtoes 17.5021
lfemur -20.4924 1.69536 -13.7716
ltibia 41.8948
lfoot -24.7586 -4.38386
ltoes -2.51595
176
root 0.853872 17.2676 -35.5683 5.77887 3.88371 -5.56907
lowerback 3.47538 -1.56898 3.57722
upperback 1.41721 -1.94372 3.79242
thorax -0.478282 -0.969437 1.96632
lowerneck -18.089 -0.279393 -3.13649
upperneck 12.1324 0.407042 0.0577605
head 6.65 0.0504107 0.569314
rclavicle -3.97569e-015 1.35174e-014
rhumerus -39.5347 -30.7723 -60.764
rradius 16.4979
rwrist 3.23215
rhand -12.5543 18.1876
rfingers 7.12502
rthumb 13.5228 -11.3533
lclavicle -3.97569e-015 1.35174e-014
lhumerus -37.14 4.06166 80.082
lradius 41.1819
lwrist -3.4809
lhand -1.04856 42.2335
lfingers 7.12502
lthumb 24.5857 70.6747
rfemur -11.1048 -1.05487 30.8705
rtibia 27.0837
rfoot -22.4697 -2.5782
rtoes 18.0801
lfemur -20.8217 1.75729 -13.7385
ltibia 43.1656
lfoot -24.523 -5.22813
ltoes 0.615812
177
root 0.837419 17.2514 -35.5689 5.59935 3.87753 -5.82603
lowerback 3.66137 -1.5321 3.70509
upperback 1.50941 -1.88218 3.90536
thorax -0.487994 -0.938223 2.01312
lowerneck -17.6455 -0.302989 -2.94508
upperneck 11.5544 0.333822 -0.124204
head 6.39166 0.0153581 0.470276
rclavicle 2.79292e-014 -1.59028e-014
rhumerus -39.2361 -31.0415 -60.686
rradius 16.1378
rwrist 3.39669
rhand -12.6616 18.0712
rfingers 7.12502
rthumb 13.4194 -11.4766
lclavicle 2.79292e-014 -1.59028e-014
lhumerus -37.1043 4.17553 80.0782
lradius 41.1944
lwrist -3.43576
lhand -0.978951 42.1544
lfingers 7.12502
lthumb 24.6524 70.5865
rfemur -10.8781 -0.687913 31.2534
rtibia 26.9943
rfoot -22.5662 -2.96067
rtoes 18.4689
lfemur -21.5578 1.94235 -13.3587
ltibia 44.5152
lfoot -23.8272 -5.16293
ltoes -3.69862
178
root 0.832751 17.2562 -35.5513 5.46564 4.01993 -5.77648
lowerback 3.6196 -1.60892 3.7828
upperback 1.62107 -1.99088 3.85408
thorax -0.353276 -0.990301 1.91798
lowerneck -17.7587 -0.273226 -2.84278
upperneck 11.5667 0.379498 -0.294335
head 6.4144 0.0269027 0.403785
rclavicle -3.98563e-014 -1.59028e-015
rhumerus -39.0543 -31.3932 -60.67
rradius 15.8905
rwrist 3.7039
rhand -12.6548 18.6989
rfingers 7.12502
rthumb 13.4259 -10.8484
lclavicle -3.98563e-014 -1.59028e-015
lhumerus -37.1604 4.17823 79.9494
lradius 41.2292
lwrist -3.2615
lhand -1.13534 42.1933
lfingers 7.12502
lthumb 24.5025 70.6459
rfemur -10.5859 -0.77795 31.2344
rtibia 26.8575
rfoot -22.514 -2.92662
rtoes 18.6438
lfemur -22.0987 2.01659 -13.291
ltibia 45.8856
lfoot -23.0497 -5.84863
ltoes -1.49568
179
root 0.822164 17.2531 -35.5435 5.3245 4.00714 -5.80846
lowerback 3.76402 -1.6648 3.9404
upperback 1.66243 -2.05277 3.77722
thorax -0.399288 -1.02034 1.75735
lowerneck -17.432 -0.152234 -2.97653
upperneck 11.3037 0.531859 -0.109684
head 6.27281 0.114201 0.499831
rclavicle 3.3197e-014 1.94809e-014
rhumerus -38.8511 -30.9177 -61.275
rradius 16.0822
rwrist 3.37086
rhand -12.8039 18.0048
rfingers 7.12502
rthumb 13.2822 -11.5519
lclavicle 3.3197e-014 1.94809e-014
lhumerus -37.2049 4.23165 79.7339
lradius 41.128
lwrist -2.99226
lhand -1.46888 42.3821
lfingers 7.12502
lthumb 24.1827 70.8776
rfemur -10.3193 -0.809022 31.3139
rtibia 26.6956
rfoot -22.5411 -2.86982
rtoes 18.628
lfemur -22.9172 2.19435 -13.2104
ltibia 47.3286
lfoot -21.8987 -6.15361
ltoes -1.56661
180
root 0.80828 17.2427 -35.5376 5.06329 4.15935 -6.08524
lowerback 4.00792 -1.69154 4.27425
upperback 1.75161 -2.06333 3.82891
thorax -0.45304 -1.02406 1.63164
lowerneck -17.7257 -0.187015 -3.30828
upperneck 11.6862 0.537771 0.171462
head 6.44259 0.121301 0.645951
rclavicle -3.90612e-014 1.55052e-014
rhumerus -38.7835 -31.7713 -60.8085
rradius 15.4654
rwrist 4.31882
rhand -12.9907 18.3992
rfingers 7.12502
rthumb 13.1022 -11.1692
lclavicle -3.90612e-014 1.55052e-014
lhumerus -37.0173 4.56354 79.5463
lradius 40.72
lwrist -3.34112
lhand -1.50583 41.4689
lfingers 7.12502
lthumb 24.1473 69.9691
rfemur -9.92735 -0.65837 31.6993
rtibia 26.4527
rfoot -22.4647 -3.18508
rtoes 18.9169
lfemur -23.5317 2.11784 -12.7246
ltibia 48.8329
lfoot -21.1337 -6.72365
ltoes -3.16904
181
root 0.799955 17.2356 -35.5282 4.87564 4.22605 -5.97876
lowerback 4.10747 -1.71249 4.13903
upperback 1.85737 -2.09517 3.81813
thorax -0.395571 -1.03931 1.69848
lowerneck -17.4289 -0.30581 -3.06689
upperneck 11.3497 0.341628 -0.0733274
head 6.2897 0.0207289 0.506596
rclavicle 2.01766e-014 -2.10712e-014
rhumerus -38.5334 -31.8342 -60.9709
rradius 15.4107
rwrist 4.50639
rhand -13.1617 18.5882
rfingers 7.12502
rthumb 12.9374 -10.9907
lclavicle 2.01766e-014 -2.10712e-014
lhumerus -37.0344 4.6712 79.5423
lradius 40.8045
lwrist -3.10272
lhand -1.65576 41.8755
lfingers 7.12502
lthumb 24.0035 70.3947
rfemur -9.57987 -0.576836 31.6315
rtibia 26.2325
rfoot -22.4771 -3.36686
rtoes 19.4476
lfemur -24.296 2.19379 -12.7552
ltibia 50.3002
lfoot -20.6256 -7.33584
ltoes -3.53996
182
root 0.791199 17.2404 -35.5113 4.68362 4.38483 -6.18226
lowerback 4.17255 -1.70119 4.39977
upperback 1.93233 -2.06916 3.85066
thorax -0.362163 -1.02394 1.58651
lowerneck -17.3962 -0.337088 -3.13647
upperneck 11.3908 0.2959 0.054653
head 6.29779 0.00604967 0.55433
rclavicle -6.36111e-015 4.77083e-015
rhumerus -38.5491 -32.3854 -60.7414
rradius 15.1792
rwrist 4.88833
rhand -13.2207 18.5112
rfingers 7.12502
rthumb 12.8804 -11.0713
lclavicle -6.36111e-015 4.77083e-015
lhumerus -36.9925 4.6734 79.4361
lradius 40.6379
lwrist -3.20848
lhand -1.5489 42.1444
lfingers 7.12502
lthumb 24.106 70.6501
rfemur -9.19159 -0.582562 31.895
rtibia 26.0016
rfoot -22.3854 -3.47371
rtoes 20.4263
lfemur -25.0434 1.95798 -12.3725
ltibia 51.8072
lfoot -19.5562 -8.35522
ltoes -1.39778
183
root 0.776838 17.2322 -35.4995 4.59496 4.34733 -6.2442
lowerback 4.24444 -1.56942 4.38395
upperback 1.98478 -1.89162 3.90998
thorax -0.344877 -0.935017 1.64954
lowerneck -17.8754 -0.350345 -3.49561
upperneck 12.0244 0.339067 0.386322
head 6.5794 0.0314443 0.725862
rclavicle 4.07509e-015 -7.95139e-015
rhumerus -38.4519 -32.6019 -60.6386
rradius 15.0655
rwrist 4.85288
rhand -13.6491 18.3521
rfingers 7.12502
rthumb 12.4674 -11.256
lclavicle 4.07509e-015 -7.95139e-015
lhumerus -36.8635 4.65388 79.5841
lradius 40.5167
lwrist -3.29875
lhand -1.4533 42.2886
lfingers 7.12502
lthumb 24.1977 70.7821
rfemur -8.96602 -0.39712 32.055
rtibia 25.8595
rfoot -22.4042 -3.66638
rtoes 20.9746
lfemur -25.9613 2.01608 -12.1968
ltibia 53.2105
lfoot -18.7128 -8.90299
ltoes -5.073
184
root 0.764486 17.2232 -35.48 4.35418 4.42758 -6.45624
lowerback 4.14945 -1.5382 4.45548
upperback 2.2229 -1.86777 4.03386
thorax -0.04404 -0.918042 1.7297
lowerneck -17.9745 -0.291817 -3.47003
upperneck 12.0463 0.442951 0.218736
head 6.60162 0.0674139 0.678747
rclavicle 7.95139e-016 -4.37326e-015
rhumerus -38.1973 -33.3606 -60.3891
rradius 14.7984
rwrist 5.58599
rhand -13.9741 18.7764
rfingers 7.12502
rthumb 12.1541 -10.8505
lclavicle 7.95139e-016 -4.37326e-015
lhumerus -36.6953 4.74334 79.6741
lradius 40.5813
lwrist -3.0604
lhand -1.64896 42.333
lfingers 7.12502
lthumb 24.01 70.8513
rfemur -8.54279 -0.312572 32.3608
rtibia 25.6381
rfoot -22.3769 -3.86721
rtoes 19.4795
lfemur -26.5684 1.79659 -11.7812
ltibia 54.6563
lfoot -18.1654 -9.90179
ltoes -2.64349
185
root 0.761263 17.2153 -35.473 4.17359 4.47955 -6.34353
lowerback 4.50411 -1.55781 4.47118
upperback 2.1509 -1.86247 3.9398
thorax -0.320036 -0.91845 1.63542
lowerneck -17.6456 -0.27707 -3.31655
upperneck 11.841 0.432562 0.0721033
head 6.48168 0.0595565 0.604501
rclavicle -1.68967e-015 2.70347e-014
rhumerus -38.4082 -33.544 -60.2659
rradius 14.7727
rwrist 5.91972
rhand -14.0643 18.7395
rfingers 7.12502
rthumb 12.0671 -10.8926
lclavicle -1.68967e-015 2.70347e-014
lhumerus -36.9353 4.95427 79.5073
lradius 40.5969
lwrist -3.06672
lhand -1.60713 43.0509
lfingers 7.12502
lthumb 24.0502 71.564
rfemur -8.22228 -0.501068 32.2518
rtibia 25.4935
rfoot -22.5395 -3.79043
rtoes 20.3087
lfemur -27.3515 1.55816 -11.8033
ltibia 55.9663
lfoot -16.9806 -10.4991
ltoes -1.65243
186
root 0.757002 17.2084 -35.4529 3.88025 4.42847 -6.71338
lowerback 4.79631 -1.53575 5.00437
upperback 2.19017 -1.7893 3.97182
thorax -0.456224 -0.879827 1.37632
lowerneck -17.8917 -0.277373 -3.15389
upperneck 12.2099 0.429359 -0.0763356
head 6.64264 0.0475736 0.531083
rclavicle 5.96354e-015 3.18055e-015
rhumerus -38.329 -33.737 -60.2734
rradius 14.5895
rwrist 6.1326
rhand -14.379 18.4496
rfingers 7.12502
rthumb 11.7637 -11.2001
lclavicle 5.96354e-015 3.18055e-015
lhumerus -37.0198 4.91777 79.4482
lradius 40.4909
lwrist -3.04503
lhand -1.42659 42.7016
lfingers 7.12502
lthumb 24.2233 71.1917
rfemur -7.71742 -0.594567 32.6673
rtibia 25.2409
rfoot -22.5766 -3.74288
rtoes 20.0333
lfemur -27.8895 1.5594 -11.3099
ltibia 57.2229
lfoot -16.7226 -10.9769
ltoes -4.95438
187
root 0.748203 17.203 -35.4311 3.68537 4.26443 -6.78544
lowerback 4.88635 -1.51863 5.11962
upperback 2.2944 -1.76092 3.93712
thorax -0.402726 -0.863004 1.27584
lowerneck -17.8096 -0.272679 -3.43946
upperneck 12.0865 0.458964 0.19267
head 6.58712 0.0738921 0.667007
rclavicle 1.80894e-014 -1.59028e-014
rhumerus -38.157 -34.2199 -60.228
rradius 14.373
rwrist 6.71345
rhand -14.5899 18.8694
rfingers 7.12502
rthumb 11.5603 -10.7917
lclavicle 1.80894e-014 -1.59028e-014
lhumerus -36.9166 5.33994 79.1792
lradius 40.2509
lwrist -2.9181
lhand -0.953333 42.3628
lfingers 7.12502
lthumb 24.6769 70.7916
rfemur -7.31842 -0.298018 32.7945
rtibia 25.0449
rfoot -22.6394 -3.72696
rtoes 19.8564
lfemur -28.452 1.42629 -11.1279
ltibia 58.2793
lfoot -16.1246 -11.1035
ltoes -3.69838
188
root 0.735716 17.2009 -35.4156 3.48825 4.15095 -7.11352
lowerback 5.17021 -1.54749 5.51742
upperback 2.26472 -1.75473 3.93514
thorax -0.602456 -0.860768 1.06139
lowerneck -17.3662 -0.281816 -3.31558
upperneck 11.6445 0.390428 0.214601
head 6.3722 0.0544065 0.645067
rclavicle 2.09718e-014 3.77691e-014
rhumerus -38.1325 -33.9254 -60.5946
rradius 14.4449
rwrist 6.61493
rhand -14.5842 19.3327
rfingers 7.12502
rthumb 11.5658 -10.3282
lclavicle 2.09718e-014 3.77691e-014
lhumerus -37.1771 5.47226 78.9618
lradius 40.137
lwrist -2.79935
lhand -1.3009 42.1162
lfingers 7.12502
lthumb 24.3438 70.5901
rfemur -6.91003 -0.00351794 33.2321
rtibia 24.7767
rfoot -22.7377 -3.80877
rtoes 19.2353
lfemur -29.046 1.67743 -10.7234
ltibia 59.1961
lfoot -15.9227 -10.4448
ltoes -6.17144
